<?xml version="1.0" standalone="no"?>
<!DOCTYPE svg PUBLIC "-//W3C//DTD SVG 20010904//EN"
 "http://www.w3.org/TR/2001/REC-SVG-20010904/DTD/svg10.dtd">
<svg version="1.0" xmlns="http://www.w3.org/2000/svg"
 width="640.000000pt" height="640.000000pt" viewBox="0 0 640.000000 640.000000"
 preserveAspectRatio="xMidYMid meet">

<g transform="translate(0.000000,640.000000) scale(0.100000,-0.100000)"
fill="#000000" stroke="none">
<path d="M2385 6340 c-47 -10 -127 -40 -193 -74 -117 -59 -453 -365 -633 -576
-150 -175 -269 -379 -333 -570 -32 -94 -46 -193 -46 -316 0 -152 25 -277 76
-381 29 -60 43 -77 80 -99 51 -30 122 -36 190 -15 54 17 151 68 195 103 50 38
58 36 52 -12 -4 -31 -1 -45 13 -61 22 -24 28 -18 -83 -90 -68 -44 -74 -55 -94
-173 -9 -52 -9 -81 0 -121 27 -121 168 -215 347 -233 l67 -7 14 -55 c12 -48
36 -96 75 -152 7 -9 10 -19 8 -21 -3 -3 -52 0 -110 6 -77 7 -146 7 -259 -2
-215 -17 -350 -48 -531 -121 -52 -21 -131 -48 -175 -59 -44 -11 -153 -45 -243
-76 -90 -31 -185 -59 -212 -62 -57 -7 -74 -22 -99 -89 -10 -27 -53 -125 -96
-219 -110 -244 -153 -345 -281 -663 l-114 -284 2 -201 3 -202 29 90 c16 50 33
94 37 100 5 5 9 -29 9 -78 0 -100 -5 -96 96 -72 56 13 129 42 304 122 83 38
168 59 182 45 17 -17 3 -27 -89 -67 -48 -20 -126 -55 -173 -75 -89 -40 -271
-115 -352 -144 l-48 -18 0 -220 c0 -172 3 -219 12 -215 339 134 551 242 793
402 85 57 116 72 136 68 33 -6 139 42 237 108 112 77 115 77 173 25 51 -46
143 -96 176 -96 10 0 36 9 58 20 22 11 43 20 47 20 4 0 10 -21 14 -46 5 -37 3
-49 -14 -67 -32 -36 -42 -63 -42 -119 0 -61 14 -87 65 -118 31 -19 36 -20 63
-6 31 16 42 13 42 -14 0 -9 16 -35 36 -58 31 -37 40 -42 79 -42 59 0 114 24
152 67 30 36 31 36 57 20 14 -9 36 -17 49 -17 37 0 113 56 144 106 27 43 30
45 67 41 21 -3 53 0 70 8 17 7 49 17 71 22 36 7 43 14 70 68 73 147 13 305
-116 305 -15 0 -30 4 -33 9 -3 4 3 39 14 77 11 38 20 80 20 93 0 43 -42 101
-105 142 -54 37 -64 40 -105 34 -25 -4 -69 -17 -99 -31 -30 -13 -56 -22 -59
-19 -3 3 4 19 16 35 31 41 28 53 -20 94 l-43 35 25 27 c14 15 78 69 142 120
103 82 161 142 205 210 12 19 13 18 29 -1 25 -32 172 -342 204 -432 21 -58 32
-116 40 -205 6 -67 20 -192 30 -276 42 -335 49 -565 20 -712 -5 -27 -4 -52 1
-62 12 -22 42 -23 58 -4 16 19 210 21 233 3 12 -9 17 -40 21 -137 4 -108 3
-129 -13 -161 -42 -82 -108 -134 -206 -164 -106 -32 -250 -11 -464 68 -36 13
-82 32 -102 42 -37 18 -37 18 -56 -5 l-18 -23 -48 37 c-43 33 -53 36 -112 36
-36 0 -80 -7 -99 -14 -40 -17 -31 -3 -281 -423 l-44 -73 889 0 889 0 45 53
c24 28 63 81 87 116 76 114 215 410 235 502 4 18 12 28 18 25 7 -2 75 -34 152
-69 77 -36 192 -86 255 -112 245 -100 405 -184 505 -263 65 -51 162 -154 190
-202 l30 -50 745 0 745 0 -33 22 c-77 49 -264 66 -474 44 -195 -21 -190 -21
-182 8 4 17 -5 46 -27 93 -139 285 -412 577 -718 768 -124 78 -394 215 -422
215 -6 0 -25 7 -42 14 -69 32 -310 102 -429 126 -58 11 -72 26 -45 49 24 20
124 175 138 214 13 37 12 41 -24 105 -53 93 -103 201 -127 274 -11 34 -20 63
-20 65 0 1 24 3 53 3 104 0 356 73 507 148 75 37 111 62 170 122 108 107 115
143 65 311 -29 97 -30 99 -9 99 19 0 40 50 61 143 18 86 36 117 66 117 12 0
35 7 51 15 15 8 40 15 53 15 35 0 83 31 121 80 18 22 46 47 61 55 28 14 29 13
68 -35 57 -70 93 -97 146 -111 26 -6 47 -15 47 -19 0 -16 -71 -75 -103 -87
-64 -23 -103 -16 -177 32 -99 65 -97 65 -121 9 -17 -41 -20 -63 -16 -129 12
-185 28 -337 36 -354 7 -12 6 -22 -1 -29 -18 -18 -101 -14 -149 7 -72 31 -89
34 -89 17 0 -9 27 -28 66 -47 61 -30 70 -31 137 -25 40 4 86 8 102 9 l30 2 17
-100 c9 -55 22 -145 28 -200 15 -121 20 -133 57 -129 56 7 321 34 428 44 106
11 282 41 356 60 19 5 46 21 59 35 22 23 23 28 12 77 -21 98 -41 232 -67 438
-54 430 -87 620 -137 790 -17 58 -31 119 -30 136 l0 31 -111 6 c-264 13 -733
-11 -780 -40 -11 -7 -2 -169 19 -328 16 -125 15 -126 -61 -146 -129 -33 -149
-50 -179 -153 -18 -61 -42 -89 -57 -65 -5 8 -9 21 -9 30 0 32 -29 28 -72 -10
-93 -82 -262 -161 -395 -187 -206 -39 -413 10 -547 128 l-49 44 12 77 c13 81
11 90 -32 149 -12 15 -19 29 -16 31 2 2 44 25 92 51 297 160 498 373 581 613
13 37 36 94 50 126 86 190 71 432 -39 649 -42 83 -111 188 -156 238 -156 176
-281 280 -519 435 -369 240 -440 289 -440 304 0 5 31 51 68 102 109 151 172
283 172 361 0 35 -50 79 -98 85 -89 12 -194 -31 -371 -152 -150 -102 -180
-118 -196 -105 -7 6 -24 28 -39 49 l-26 38 43 65 c53 78 99 194 101 250 1 35
-5 45 -40 77 -23 20 -65 49 -95 65 -47 26 -64 30 -154 32 -55 2 -118 -1 -140
-6z m-35 -244 c0 -7 -15 -20 -32 -27 -18 -7 -55 -27 -83 -43 -49 -30 -245
-165 -255 -176 -3 -3 -31 -24 -62 -47 -55 -41 -81 -44 -57 -6 25 40 255 207
357 259 111 57 132 63 132 40z m129 -351 c64 -63 -20 -218 -127 -232 -34 -5
-42 -1 -65 27 -30 36 -36 90 -12 110 12 10 15 9 15 -5 0 -9 10 -30 21 -47 21
-28 25 -30 72 -25 41 3 55 10 74 33 28 35 29 64 5 95 -24 29 -48 20 -57 -20
-7 -31 -38 -61 -62 -61 -8 0 -13 13 -13 34 0 19 -4 38 -10 41 -18 11 -11 23
33 55 49 36 86 35 126 -5z m370 -217 c20 -12 76 -51 126 -87 74 -55 85 -67 67
-69 -31 -5 -22 -26 11 -30 15 -2 27 -6 27 -9 0 -6 -47 -63 -86 -105 l-25 -26
43 -41 c28 -26 52 -41 70 -41 33 0 91 48 109 91 12 30 11 33 -22 61 -33 27
-33 29 -9 26 15 -2 29 -12 35 -25 12 -28 35 -30 35 -3 0 11 3 20 6 20 22 0
313 -181 424 -263 131 -98 287 -248 363 -347 87 -117 156 -270 183 -408 20
-105 18 -127 -7 -80 -19 36 -57 70 -75 67 -25 -4 -37 8 -87 89 -64 100 -114
203 -123 249 -5 26 -1 37 22 58 16 15 24 29 18 34 -5 5 -49 21 -99 36 -111 34
-212 79 -243 108 -18 17 -22 28 -17 54 26 141 -142 260 -318 223 -31 -6 -66
-19 -77 -28 -20 -16 -17 -17 72 -17 83 -1 99 -4 146 -30 91 -49 113 -123 66
-217 -62 -123 -199 -189 -359 -172 -107 11 -157 74 -103 131 15 16 33 23 60
23 47 0 49 15 4 37 -43 20 -72 13 -117 -31 -34 -33 -35 -37 -29 -85 10 -79 83
-157 169 -181 97 -27 254 -1 343 57 39 26 112 124 129 173 6 16 13 30 16 30 2
0 24 -14 49 -31 58 -39 138 -75 192 -84 23 -4 42 -10 42 -15 0 -9 -131 -119
-204 -170 -207 -147 -548 -313 -701 -341 -140 -26 -151 -23 -159 40 -3 26 -13
56 -21 67 -25 33 -35 -1 -35 -127 0 -82 -4 -125 -14 -145 -8 -15 -12 -32 -9
-37 8 -13 49 37 68 81 12 26 19 32 46 32 38 0 181 -47 269 -89 98 -46 327
-127 398 -141 34 -7 93 -10 131 -8 91 7 149 39 274 155 107 99 198 156 218
136 8 -8 2 -21 -23 -49 l-35 -37 29 -47 c31 -50 53 -154 43 -202 -9 -38 -80
-106 -125 -118 -19 -5 -55 -11 -80 -12 -32 -2 -45 -8 -45 -18 0 -8 9 -16 20
-18 11 -2 30 -13 42 -24 19 -18 30 -19 79 -13 l57 7 -21 -29 c-58 -81 -236
-262 -258 -263 -7 0 -14 -6 -17 -13 -8 -21 -187 -105 -260 -122 -130 -30 -604
-14 -700 24 -16 6 -90 29 -165 52 -173 52 -229 79 -313 154 -36 33 -91 82
-122 109 -67 59 -93 104 -100 176 -7 63 -7 64 53 110 59 45 115 106 137 150
10 19 27 48 37 64 28 41 9 32 -99 -49 -137 -102 -188 -124 -304 -131 l-96 -6
-75 40 c-85 44 -109 78 -110 151 0 62 56 135 138 179 79 42 236 70 387 68 101
-1 115 -3 168 -31 31 -16 57 -34 57 -40 0 -5 14 -25 31 -44 36 -39 48 -31 49
34 1 65 16 125 40 157 12 16 20 31 18 32 -1 2 -25 16 -53 31 -27 16 -57 34
-65 41 -8 7 -58 35 -110 62 -85 46 -95 54 -98 81 -5 46 34 141 76 186 67 72
128 149 182 229 65 97 194 350 240 469 21 54 39 87 48 87 8 0 31 -10 51 -22z
m278 -280 c12 -20 12 -38 3 -64 -16 -41 -100 -29 -100 15 0 41 77 80 97 49z
m-664 -33 c-3 -9 -8 -14 -10 -11 -3 3 -2 9 2 15 9 16 15 13 8 -4z m-121 -187
c-7 -7 -12 -8 -12 -2 0 14 12 26 19 19 2 -3 -1 -11 -7 -17z m-27 -38 c-3 -5
-11 -10 -16 -10 -6 0 -7 5 -4 10 3 6 11 10 16 10 6 0 7 -4 4 -10z m-105 -94
c0 -2 -8 -10 -17 -17 -16 -13 -17 -12 -4 4 13 16 21 21 21 13z m-327 -110 c24
-18 21 -26 -8 -26 -18 0 -25 5 -25 20 0 23 8 25 33 6z m333 -123 c-10 -10 -19
5 -10 18 6 11 8 11 12 0 2 -7 1 -15 -2 -18z m-25 -23 c5 0 9 -4 9 -10 0 -5 -7
-7 -15 -4 -9 4 -14 17 -14 33 2 23 2 24 6 4 2 -13 9 -23 14 -23z m1718 -129
c17 -40 31 -82 31 -93 0 -29 -56 -76 -176 -147 -151 -89 -195 -121 -188 -132
3 -6 16 -3 32 8 29 19 149 84 197 106 17 8 61 38 99 67 57 44 70 50 81 39 24
-25 85 -132 84 -148 -2 -25 -258 -263 -317 -294 -100 -54 -225 -54 -379 -2
-96 33 -420 193 -402 199 214 70 269 92 395 158 157 81 263 149 417 265 45 34
85 59 88 55 4 -4 21 -40 38 -81z m-1739 69 c0 -5 -4 -10 -10 -10 -5 0 -10 5
-10 10 0 6 5 10 10 10 6 0 10 -4 10 -10z m81 -87 c13 -15 12 -15 -8 -4 -24 12
-29 21 -14 21 5 0 15 -7 22 -17z m-341 -92 c-6 -23 -15 -41 -21 -41 -6 0 -9 3
-7 8 2 4 10 24 17 44 19 48 25 42 11 -11z m437 43 c-3 -3 -12 -4 -19 -1 -8 3
-5 6 6 6 11 1 17 -2 13 -5z m53 -39 c9 -10 9 -15 1 -15 -6 0 -11 4 -11 9 0 5
-12 12 -27 14 l-28 4 26 2 c15 0 32 -6 39 -14z m-80 -9 c0 -11 -19 -15 -25 -6
-3 5 1 10 9 10 9 0 16 -2 16 -4z m-353 -22 c-3 -3 -12 -4 -19 -1 -8 3 -5 6 6
6 11 1 17 -2 13 -5z m63 -9 c7 -8 19 -15 28 -15 8 0 13 -3 9 -6 -7 -8 -67 18
-67 28 0 13 17 9 30 -7z m323 8 c-7 -2 -13 -11 -13 -19 0 -15 -12 -19 -23 -7
-8 7 23 33 38 32 6 0 4 -3 -2 -6z m133 -30 c-4 -4 -11 -1 -16 7 -16 25 -11 35
7 17 9 -9 13 -20 9 -24z m-206 17 c0 -5 -2 -10 -4 -10 -3 0 -8 5 -11 10 -3 6
-1 10 4 10 6 0 11 -4 11 -10z m-75 -10 c3 -5 -1 -10 -9 -10 -8 0 -18 5 -21 10
-3 6 1 10 9 10 8 0 18 -4 21 -10z m-191 -15 c25 -19 17 -19 -25 0 -24 10 -28
14 -14 14 11 0 29 -6 39 -14z m426 5 c0 -5 -4 -10 -10 -10 -5 0 -10 5 -10 10
0 6 5 10 10 10 6 0 10 -4 10 -10z m80 -5 c-7 -8 -17 -15 -22 -15 -11 0 14 29
26 30 5 0 3 -7 -4 -15z m-263 -1 c-3 -3 -12 -4 -19 -1 -8 3 -5 6 6 6 11 1 17
-2 13 -5z m43 -14 c0 -5 -4 -10 -9 -10 -6 0 -13 5 -16 10 -3 6 1 10 9 10 9 0
16 -4 16 -10z m87 4 c-3 -3 -12 -4 -19 -1 -8 3 -5 6 6 6 11 1 17 -2 13 -5z
m-314 -11 c-7 -2 -19 -2 -25 0 -7 3 -2 5 12 5 14 0 19 -2 13 -5z m390 0 c-7
-2 -19 -2 -25 0 -7 3 -2 5 12 5 14 0 19 -2 13 -5z m-116 -9 c-3 -3 -12 -4 -19
-1 -8 3 -5 6 6 6 11 1 17 -2 13 -5z m71 -16 c16 -16 15 -29 -2 -22 -16 6 -30
34 -18 34 5 0 13 -5 20 -12z m54 -31 c-7 -8 -9 -17 -5 -20 3 -4 2 -7 -4 -7 -6
0 -13 7 -17 15 -3 9 0 15 9 15 8 0 15 5 15 12 0 6 3 8 6 5 4 -4 2 -13 -4 -20z
m1748 -187 c0 -22 -4 -40 -9 -40 -14 0 -23 37 -16 60 11 34 25 22 25 -20z
m1574 -599 c6 -9 -24 -109 -51 -171 -8 -19 -19 -44 -23 -55 -5 -11 -54 -114
-110 -229 -55 -116 -103 -220 -106 -233 -5 -17 7 -41 47 -95 30 -40 56 -75 59
-78 3 -3 23 -32 44 -65 89 -137 229 -325 293 -395 17 -19 30 -37 28 -41 -3 -3
-39 -12 -82 -18 -43 -7 -114 -19 -158 -26 -73 -13 -158 -26 -360 -54 -38 -6
-73 -7 -76 -3 -9 10 -49 215 -49 253 0 17 -15 66 -34 108 -19 42 -40 105 -46
141 -6 36 -27 132 -47 213 -19 82 -33 151 -30 153 3 3 33 -12 67 -35 34 -22
75 -43 91 -46 78 -17 250 127 225 190 -4 10 -20 15 -53 15 -69 0 -120 30 -173
102 -25 34 -50 63 -56 65 -5 2 -29 -13 -53 -33 -26 -22 -46 -33 -52 -27 -20
20 -44 282 -26 299 3 3 129 17 279 30 150 14 293 29 318 33 61 12 128 13 134
2z m55 -306 c43 -172 68 -340 121 -790 23 -197 23 -195 11 -195 -11 0 -141
170 -277 363 -58 82 -116 161 -129 175 -14 15 -25 34 -25 43 0 18 22 69 95
224 69 145 115 244 137 295 l20 45 13 -40 c8 -22 23 -76 34 -120z m-3872 109
c2 -7 -13 -22 -34 -35 -21 -13 -42 -27 -48 -31 -149 -116 -408 -282 -457 -294
-30 -7 -33 -3 -18 24 12 21 90 259 90 276 0 35 29 50 116 62 113 15 346 13
351 -2z m-817 -68 c0 -3 -6 -11 -13 -18 -6 -7 -32 -38 -57 -68 -25 -30 -47
-57 -50 -60 -3 -3 -16 -18 -28 -34 -12 -16 -40 -50 -62 -75 -22 -25 -99 -118
-172 -205 -126 -151 -164 -189 -156 -153 2 13 323 392 488 580 30 32 50 46 50
33z m1911 -102 c9 -5 0 -101 -11 -123 -5 -10 -19 4 -49 47 -22 33 -45 64 -51
67 -5 3 -10 11 -10 17 0 10 102 4 121 -8z m176 -99 c1 0 4 -12 8 -28 6 -21 4
-27 -9 -27 -9 0 -19 8 -23 18 -3 9 -15 29 -25 44 -29 42 -21 54 14 22 18 -16
34 -29 35 -29z m136 -207 c38 -78 71 -156 74 -173 6 -29 5 -29 -39 20 -82 90
-128 154 -128 178 0 41 12 117 19 117 3 0 37 -64 74 -142z m-173 22 c20 -21
29 -43 32 -75 2 -25 0 -45 -3 -45 -7 0 -89 132 -89 143 0 17 35 4 60 -23z
m1827 -22 c-3 -7 -5 -2 -5 12 0 14 2 19 5 13 2 -7 2 -19 0 -25z m-2829 -43
l35 -15 -27 -29 c-15 -16 -80 -67 -144 -112 -64 -46 -171 -126 -239 -176 -68
-51 -130 -93 -138 -93 -7 0 -30 19 -49 42 -54 62 -49 83 31 154 256 228 393
286 531 229z m2852 -60 c0 -5 -5 -3 -10 5 -5 8 -10 20 -10 25 0 6 5 3 10 -5 5
-8 10 -19 10 -25z m-2017 -42 c-8 -52 -13 -54 -13 -5 0 23 4 42 9 42 6 0 7
-17 4 -37z m2027 6 c0 -11 -4 -17 -10 -14 -5 3 -10 13 -10 21 0 8 5 14 10 14
6 0 10 -9 10 -21z m-10 -61 c0 -19 -2 -20 -10 -8 -13 19 -13 30 0 30 6 0 10
-10 10 -22z m17 -25 c-3 -10 -5 -4 -5 12 0 17 2 24 5 18 2 -7 2 -21 0 -30z
m-4512 -211 c-3 -9 -9 -12 -15 -6 -6 6 -4 27 3 54 l12 45 3 -39 c2 -21 1 -45
-3 -54z m555 -421 c8 -16 5 -23 -19 -40 -35 -25 -41 -20 -27 24 12 39 30 45
46 16z m1187 -30 c25 -18 31 -46 9 -38 -27 11 -28 -32 -1 -120 41 -136 45
-145 99 -200 53 -55 79 -57 52 -5 -22 42 -20 52 4 23 28 -33 28 -143 1 -170
-39 -39 -154 -40 -195 -2 -12 12 -27 21 -33 21 -12 0 -23 -32 -23 -75 0 -16
-13 -48 -29 -70 -35 -51 -63 -50 -112 5 -53 58 -57 57 -89 -45 -16 -50 -35
-64 -86 -65 -51 0 -74 17 -83 60 -6 32 -10 35 -45 38 -21 2 -43 -1 -49 -7 -17
-17 -33 -13 -45 13 -11 25 -2 44 40 90 22 24 23 45 3 82 -16 30 -20 101 -7
120 4 6 17 16 30 23 24 13 29 37 10 44 -7 2 -10 7 -7 11 4 4 14 0 22 -9 21
-21 30 -19 22 5 -5 14 -3 18 8 14 14 -5 39 17 36 32 -3 21 2 28 11 14 8 -13
10 -12 10 3 0 9 3 17 8 17 10 0 62 84 62 101 0 10 24 21 68 32 37 10 101 33
142 52 81 37 122 39 167 6z m-977 3 c0 -8 -4 -12 -10 -9 -5 3 -10 10 -10 16 0
5 5 9 10 9 6 0 10 -7 10 -16z m550 -163 c0 -12 -20 -25 -27 -18 -7 7 6 27 18
27 5 0 9 -4 9 -9z m-80 -61 c0 -5 -5 -10 -11 -10 -5 0 -7 5 -4 10 3 6 8 10 11
10 2 0 4 -4 4 -10z m-50 -79 c0 -6 -4 -13 -10 -16 -5 -3 -10 1 -10 9 0 9 5 16
10 16 6 0 10 -4 10 -9z"/>
<path d="M2940 5393 c-24 -10 -75 -62 -67 -69 4 -4 20 4 35 18 15 14 37 29 50
33 12 3 22 11 22 16 0 10 -17 11 -40 2z"/>
<path d="M2660 5111 c0 -5 7 -11 15 -15 23 -8 18 -24 -13 -40 -30 -15 -94
-101 -132 -175 -18 -35 -20 -49 -11 -67 14 -32 27 -30 46 6 l16 31 28 -21 c46
-32 93 -27 129 15 40 45 32 79 -26 118 -42 28 -42 28 -24 52 25 36 48 39 88
15 44 -28 59 -17 21 16 -24 20 -26 26 -15 43 14 24 4 39 -15 23 -9 -8 -24 -9
-48 -2 -42 12 -59 13 -59 1z m48 -183 c7 -7 12 -21 12 -33 0 -30 -19 -45 -55
-45 -52 0 -71 36 -38 72 18 20 63 24 81 6z"/>
<path d="M1942 4181 c-29 -11 -71 -34 -94 -52 -59 -47 -109 -165 -78 -184 22
-14 60 9 92 56 18 27 35 49 38 49 3 0 5 -15 6 -34 1 -69 47 -126 103 -126 24
0 28 15 6 24 -34 13 1 168 41 183 9 3 39 -6 67 -21 52 -26 127 -35 127 -16 0
18 -73 91 -110 110 -57 29 -136 33 -198 11z"/>
</g>
</svg>
